HIERARCHY
ROOT ui
{
	 OFFSET 0 0 0
	 CHANNELS 3 XPosition YPosition Z Position
	 EndSite
	 {
	 OFFSET 0 -1 0
	 }
}
ROOT li
{
	 OFFSET 0 0 0
	 CHANNELS 3 XPosition YPosition Z Position
	 EndSite
	 {
	 OFFSET 0 -1 0
	 }
}
ROOT ul
{
	 OFFSET 0 0 0
	 CHANNELS 3 XPosition YPosition Z Position
	 EndSite
	 {
	 OFFSET 0 -1 0
	 }
}
ROOT ll
{
	 OFFSET 0 0 0
	 CHANNELS 3 XPosition YPosition Z Position
	 EndSite
	 {
	 OFFSET 0 -1 0
	 }
}
ROOT tt
{
	 OFFSET 0 0 0
	 CHANNELS 3 XPosition YPosition Z Position
	 EndSite
	 {
	 OFFSET 0 -1 0
	 }
}
ROOT tb
{
	 OFFSET 0 0 0
	 CHANNELS 3 XPosition YPosition Z Position
	 EndSite
	 {
	 OFFSET 0 -1 0
	 }
}
ROOT td
{
	 OFFSET 0 0 0
	 CHANNELS 3 XPosition YPosition Z Position
	 EndSite
	 {
	 OFFSET 0 -1 0
	 }
}
ROOT v
{
	 OFFSET 0 0 0
	 CHANNELS 3 XPosition YPosition Z Position
	 EndSite
	 {
	 OFFSET 0 -1 0
	 }
}
ROOT bn
{
	 OFFSET 0 0 0
	 CHANNELS 3 XPosition YPosition Z Position
	 EndSite
	 {
	 OFFSET 0 -1 0
	 }
}
MOTION
Frames: 24
Frame Time: 0.002
-2.420790046453476E-4	7.552699744701385E-5	0		0.7264180297851562	-2.86941650390625	0		-1.0785306396484375	0.049419696807861326	0		-0.5153507690429687	-2.90115380859375	0		2.15543701171875	-1.76586474609375	0		3.756860107421875	-1.3105087890625	0		4.9020556640625	-0.58492822265625	0		6.02380126953125	0.5061317138671875	0		-0.0015990190505981445	5.94705615234375	0		
-1.7744000256061555E-4	1.3653700053691865E-4	0		0.7405200805664063	-2.865615478515625	0		-1.0784654541015626	0.0494927864074707	0		-0.5322620239257813	-2.897782470703125	0		2.11070458984375	-1.7530224609375	0		3.724789794921875	-1.31691455078125	0		4.88800830078125	-0.590669921875	0		6.02870947265625	0.4970369873046875	0		-4.8587900400161744E-4	5.94609912109375	0		
-0.007233383178710938	-0.006675905227661133	0		0.69851513671875	-2.86780712890625	0		-1.12060498046875	0.0383194580078125	0		-0.5224013671875	-2.907894775390625	0		2.11106201171875	-1.73598388671875	0		3.734449462890625	-1.339064208984375	0		4.880857421875	-0.6025267333984375	0		6.0246396484375	0.48911514282226565	0		0.0016014289855957032	5.94412451171875	0		
0.004033570766448975	0.00418409013748169	0		0.7535206298828125	-2.870740478515625	0		-1.1055	0.04011718368530273	0		-0.5192799682617187	-2.90388623046875	0		2.096733642578125	-1.7016761474609374	0		3.734121826171875	-1.3050196533203124	0		4.880923828125	-0.6025030517578125	0		6.028857421875	0.4970573425292969	0		0.0026978659629821778	5.943166015625	0		
0.004106466770172119	0.0042409181594848635	0		0.7556317138671875	-2.86772412109375	0		-1.0723424072265626	0.044586292266845705	0		-0.4873535766601563	-2.911400390625	0		2.129935791015625	-1.694224609375	0		3.715741455078125	-1.329655517578125	0		4.8731025390625	-0.59632958984375	0		6.0247900390625	0.489155029296875	0		0.001820716977119446	5.94424072265625	0		
1.0863699764013291E-4	3.6665499210357665E-4	0		0.7765120849609375	-2.878049072265625	0		-1.0795552978515626	0.028771587371826172	0		-0.5273377075195312	-2.913626220703125	0		2.062571533203125	-1.6619619140625	0		3.70004638671875	-1.3163297119140625	0		4.86595947265625	-0.6081654663085938	0		6.0158662109375	0.4893492126464844	0		0.001914618968963623	5.9442939453125	0		
-0.006943696022033692	-0.006458484172821045	0		0.7486024169921875	-2.87649951171875	0		-1.0405072021484374	0.027120532989501952	0		-0.49843634033203127	-2.92309716796875	0		2.078998046875	-1.6422078857421876	0		3.703882568359375	-1.3293572998046874	0		4.851943359375	-0.6128727416992188	0		6.02493798828125	0.48922598266601564	0		-0.013198982238769532	5.93361328125	0		
-0.0068737750053405764	-0.006417372226715088	0		0.7486732177734375	-2.8764580078125	0		-1.11840673828125	0.029562820434570314	0		-0.533305908203125	-2.919427734375	0		2.0304716796875	-1.6192891845703126	0		3.681369873046875	-1.3059053955078126	0		4.84306884765625	-0.6096688232421875	0		6.0250078125	0.4892690124511719	0		0.0020642719268798826	5.9443828125	0		
0.0043892040252685545	0.004416800022125244	0		0.752818115234375	-2.872495361328125	0		-1.0602412109375	0.03455078506469727	0		-0.4864554138183594	-2.93223779296875	0		2.057131103515625	-1.586723388671875	0		3.66715478515625	-1.3216092529296875	0		4.8372998046875	-0.6005178833007813	0		6.0170751953125	0.4894600524902344	0		0.0021178619861602784	5.94441650390625	0		
3.8263401389122007E-4	5.154600143432617E-4	0		0.7528951416015625	-2.8724658203125	0		-1.1142039794921874	0.03354270553588867	0		-0.523336181640625	-2.929549560546875	0		2.001732666015625	-1.5566871337890624	0		3.679420654296875	-1.31078466796875	0		4.8370078125	-0.6204676513671875	0		6.02513623046875	0.4893684387207031	0		0.0021568820476531984	5.94444287109375	0		
4.4533398747444153E-4	5.342190265655518E-4	0		0.7509407958984375	-2.874406005859375	0		-1.02840673828125	0.018012224197387697	0		-0.46829937744140626	-2.932521484375	0		2.0122886962890627	-1.52983935546875	0		3.652226806640625	-1.3252548828125	0		4.82402294921875	-0.6231837768554688	0		6.017197265625	0.4895697326660156	0		0.0021812429428100587	5.94446142578125	0		
-0.00661807918548584	-0.0063277149200439455	0		0.7489912719726562	-2.87635205078125	0		-1.106333251953125	0.019414573669433593	0		-0.530310546875	-2.937400390625	0		1.95614404296875	-1.4857945556640626	0		3.636535400390625	-1.3119268798828125	0		4.820982421875	-0.6290758056640625	0		6.01725390625	0.48963323974609374	0		0.002190762996673584	5.94447265625	0		
-0.002486725091934204	-0.0023961379528045653	0		0.7490830688476563	-2.87633984375	0		-1.067279541015625	0.018706899642944336	0		-0.4952775268554688	-2.941029541015625	0		1.9527054443359375	-1.4587015380859376	0		3.615505615234375	-1.3175052490234376	0		4.7959638671875	-0.6335695190429688	0		6.021146484375	0.48063308715820313	0		0.003167526960372925	5.943458984375	0		
0.004698248863220214	0.004474865913391113	0		0.7391837158203125	-2.87615283203125	0		-1.0811810302734375	0.020940879821777343	0		-0.5131747436523437	-2.9407158203125	0		1.9424146728515626	-1.423486328125	0		3.632939697265625	-1.2977672119140624	0		4.79019482421875	-0.6244017333984375	0		6.030486328125	0.4965473022460937	0		0.004130599975585937	5.94243896484375	0		
0.004760813236236572	0.0044672608375549315	0		0.7783034057617187	-2.875847412109375	0		-1.0149681396484376	0.028732742309570312	0		-0.4950685424804688	-2.941053955078125	0		1.9221478271484376	-1.387093017578125	0		3.568871826171875	-1.3055699462890624	0		4.774126953125	-0.6320459594726563	0		6.021255859375	0.480798583984375	0		0.0021355500221252443	5.944466796875	0		
7.55607008934021E-4	5.272039771080017E-4	0		0.7514437866210938	-2.87436279296875	0		-1.1060850830078126	0.019331653594970702	0		-0.5349963989257812	-2.943359375	0		1.9077423095703125	-1.358806396484375	0		3.567176513671875	-1.2934833984375	0		4.76284814453125	-0.6517713012695312	0		6.02131298828125	0.48089599609375	0		0.0020929989814758303	5.94445458984375	0		
8.249149918556213E-4	5.101500153541565E-4	0		0.8014215698242187	-2.883256591796875	0		-1.0280286865234376	0.017897926330566406	0		-0.503996337890625	-2.950940185546875	0		1.849528076171875	-1.31973583984375	0		3.55329248046875	-1.2921767578125	0		4.74300537109375	-0.647333251953125	0		6.01722998046875	0.47307601928710935	0		0.0020395469665527343	5.9444375	0		
-0.0021554160118103026	-0.0024580609798431395	0		0.7237337646484375	-2.87286962890625	0		-1.10594384765625	0.019244007110595703	0		-0.5289765625	-2.95752685546875	0		1.8733057861328124	-1.282132080078125	0		3.5338623046875	-1.2657642822265625	0		4.7320947265625	-0.6470498657226562	0		6.01343505859375	0.4812625427246094	0		0.001975316047668457	5.94441552734375	0		
9.736210107803345E-4	4.600619971752167E-4	0		0.7778027954101563	-2.8778408203125	0		-1.0668746337890624	0.018493051528930663	0		-0.5267902221679688	-2.95560400390625	0		1.8253309326171876	-1.230247314453125	0		3.51870556640625	-1.280432861328125	0		4.7153681640625	-0.6366563720703124	0		6.02149755859375	0.48124462890625	0		0.0019005210399627686	5.9443876953125	0		
0.005123198986053467	0.004354400157928467	0		0.754053955078125	-2.872427001953125	0		-1.1057899169921874	0.019123682022094725	0		-0.49372381591796877	-2.961239013671875	0		1.843241943359375	-1.1855404052734375	0		3.513265625	-1.255266845703125	0		4.70825244140625	-0.6484337158203125	0		6.0215634765625	0.4813768615722656	0		0.0018155839443206787	5.944353515625	0		
0.020006631851196287	-0.006950471878051758	0		0.8030706787109375	-2.881314208984375	0		-1.027721435546875	0.017664999008178712	0		-0.4986604309082031	-2.9672041015625	0		1.832141845703125	-1.14131982421875	0		3.485424072265625	-1.2527059326171874	0		4.6942666015625	-0.6530848388671875	0		6.01334765625	0.46565985107421876	0		-0.0012256790399551392	5.9473662109375	0		
0.001215006947517395	3.388490080833435E-4	0		0.7503219604492187	-2.876396728515625	0		-1.066634765625	0.018276985168457032	0		-0.49132720947265623	-2.958392578125	0		1.8130955810546876	-1.0939617919921876	0		3.457885986328125	-1.2331494140625	0		4.66930126953125	-0.656539794921875	0		6.00569873046875	0.4819419250488281	0		-0.0013324129581451416	5.94731884765625	0		
-0.005831812858581543	-0.006589999198913574	0		0.75252880859375	-2.87446142578125	0		-1.1055533447265624	0.018877851486206056	0		-0.5383577880859375	-2.96962890625	0		1.8090936279296874	-1.0438746337890625	0		3.4737705078125	-1.246369384765625	0		4.658400390625	-0.6562435302734375	0		6.01445654296875	0.46493136596679685	0		-0.032608871459960935	5.9388154296875	0		
0.005425999164581299	0.0041538882255554195	0		0.7656036987304687	-2.879723876953125	0		-1.097348876953125	0.0266368350982666	0		-0.4923906555175781	-2.9815185546875	0		1.795380859375	-0.976616943359375	0		3.4577119140625	-1.19901513671875	0		4.639615234375	-0.648806396484375	0		6.0065068359375	0.46522259521484377	0		0.0013496259450912476	5.94415283203125	0		
